Coordinates
version=1
nRows=16
nColumns=40
inDegrees=yes

Units are S.I. units (second, meters, Newtons, ...)
Angles are in degrees.

endheader
time	pelvis_tilt	pelvis_list	pelvis_rotation	pelvis_tx	pelvis_ty	pelvis_tz	hip_flexion_r	hip_adduction_r	hip_rotation_r	knee_angle_r	knee_angle_r_beta	ankle_angle_r	subtalar_angle_r	mtp_angle_r	hip_flexion_l	hip_adduction_l	hip_rotation_l	knee_angle_l	knee_angle_l_beta	ankle_angle_l	subtalar_angle_l	mtp_angle_l	lumbar_extension	lumbar_bending	lumbar_rotation	arm_flex_r	arm_add_r	arm_rot_r	elbow_flex_r	pro_sup_r	wrist_flex_r	wrist_dev_r	arm_flex_l	arm_add_l	arm_rot_l	elbow_flex_l	pro_sup_l	wrist_flex_l	wrist_dev_l
      0.87000000	     -2.48587489	     -2.28157909	      7.75151766	     -0.57157223	      0.87770993	      1.43287857	     26.28990968	     -1.71252123	    -20.19836449	    -22.77882574	     -0.39756551	      3.52043399	     -5.15028585	     11.41972744	      1.28429378	      3.83541276	      5.44429956	    -31.21877173	     -0.54487036	     13.86711488	      3.26319240	     -4.43304118	     -3.05003581	      1.87800041	    -11.30352847	     -2.49079600	     -5.89329812	    -18.04162052	     22.80143702	     89.95437384	      0.00000000	      0.00000000	      7.84965485	     11.57931108	      8.69035557	     40.41666195	     89.95437384	      0.00000000	      0.00000000
      0.88000000	     -2.57106292	     -2.21480418	      7.71674764	     -0.56350846	      0.87758316	      1.43450359	     26.21395046	     -1.70947946	    -19.92838915	    -23.33914793	     -0.40734498	      3.25753139	     -5.12134291	     11.18151018	      1.03649415	      3.93158584	      5.25587864	    -31.59571536	     -0.55144926	     13.47365295	      3.22502338	     -4.34704490	     -2.74618563	      1.77435312	    -11.27334411	     -2.76115041	     -5.86880575	    -17.97529528	     22.97184505	     89.95437384	      0.00000000	      0.00000000	      7.51386885	     11.54305141	      8.76186142	     40.38107638	     89.95437384	      0.00000000	      0.00000000
      0.89000000	     -2.29451660	     -2.45895134	      7.63957135	     -0.55552300	      0.87810647	      1.43601633	     25.94941058	     -1.43603129	    -20.24922969	    -24.33490752	     -0.42472426	      2.63741125	     -5.90019435	     11.07090807	      0.39358528	      4.40015088	      5.13251707	    -31.83442557	     -0.55561554	     12.95374127	      3.64575106	     -4.28570426	     -2.81797225	      2.13432523	    -11.24248846	     -2.58139219	     -5.96155968	    -17.95102481	     22.56339538	     89.95437384	      0.00000000	      0.00000000	      7.42272399	     11.26671897	      9.31889600	     39.87192331	     89.95437384	      0.00000000	      0.00000000
      0.90000000	     -1.95026727	     -2.62194134	      7.54705437	     -0.54731440	      0.87912099	      1.43765726	     25.05903542	     -0.83474082	    -19.50230368	    -24.05629978	     -0.41986164	      1.56884910	     -7.41965214	     10.92886746	     -0.29700980	      4.67964382	      4.62078464	    -32.14145811	     -0.56097427	     12.23137084	      4.71039695	     -4.48242818	     -2.99462761	      2.39307131	    -11.24712847	     -2.57062647	     -5.98253236	    -17.97442769	     22.56125506	     89.95437384	      0.00000000	      0.00000000	      7.08947072	     10.86668095	     10.41774914	     39.71428458	     89.95437384	      0.00000000	      0.00000000
      0.91000000	     -2.08838438	     -2.51235299	      7.37663450	     -0.53931711	      0.87926492	      1.43932573	     24.94067031	     -0.78261083	    -19.16208455	    -24.49366171	     -0.42749504	      1.43775275	     -7.19379579	     10.66928657	     -0.38738600	      4.65718388	      4.35872605	    -32.65548816	     -0.56994579	     11.75904382	      4.62524570	     -4.38733819	     -2.65077712	      2.27093944	    -11.10807743	     -2.79049918	     -6.00984591	    -17.87565267	     22.78972062	     89.95437384	      0.00000000	      0.00000000	      6.64182470	     10.83549394	     10.43026943	     39.64736767	     89.95437384	      0.00000000	      0.00000000
      0.92000000	     -2.14610735	     -2.82017011	      7.09692467	     -0.53134456	      0.87973036	      1.44136208	     24.60614368	     -0.04686602	    -18.49077710	    -24.53255629	     -0.42817388	      1.38420813	     -7.34800124	     10.31830924	     -0.30629660	      5.12428853	      4.22131219	    -33.54552225	     -0.58547981	     10.70465569	      5.70343807	     -4.35270837	     -2.32670138	      2.62495049	    -10.90272831	     -2.74133098	     -6.14562419	    -17.58553365	     22.51717952	     89.95437384	      0.00000000	      0.00000000	      6.32910791	     10.52781810	     11.04507512	     39.24495594	     89.95437384	      0.00000000	      0.00000000
      0.93000000	     -2.20599039	     -2.77595899	      6.86714914	     -0.52364601	      0.88021145	      1.44328904	     24.38460031	      0.18815077	    -18.06124891	    -24.90221705	     -0.43462568	      1.43636456	     -7.19665190	     10.01304295	     -0.23832872	      5.16803137	      3.85678919	    -34.40476793	     -0.60047648	      9.81792860	      5.93152225	     -4.23232113	     -2.10656586	      2.57492479	    -10.67290373	     -2.79085368	     -6.18721030	    -17.40693514	     22.49883838	     89.95437384	      0.00000000	      0.00000000	      5.98830467	     10.43730499	     11.14377589	     39.00591141	     89.95437384	      0.00000000	      0.00000000
      0.94000000	     -2.37819306	     -2.77894129	      6.66475302	     -0.51568294	      0.88064858	      1.44524053	     24.11218157	      0.54507476	    -17.59572918	    -24.94459326	     -0.43536528	      1.73593474	     -7.13377415	      9.70701587	      0.06484401	      5.27789876	      3.60705283	    -35.41848620	     -0.61816920	      8.56460784	      6.68053988	     -4.04921365	     -1.67816558	      2.55313508	    -10.54821513	     -2.82491929	     -6.22531986	    -17.25727924	     22.38566621	     89.95437384	      0.00000000	      0.00000000	      5.58499289	     10.31767366	     11.36446896	     38.59819617	     89.95437384	      0.00000000	      0.00000000
      0.95000000	     -2.74538634	     -2.59486484	      6.35521824	     -0.50828359	      0.88081662	      1.44699823	     24.05594378	      0.69107905	    -17.10325471	    -24.91811403	     -0.43490313	      2.02704959	     -7.16173048	      9.36967504	      0.66873308	      5.03691217	      3.16394796	    -36.55112175	     -0.63793742	      7.32364591	      7.71586095	     -3.84287288	     -1.14167479	      2.33954122	    -10.32883798	     -2.86643130	     -6.26456580	    -17.10736712	     22.43103030	     89.95437384	      0.00000000	      0.00000000	      5.11621003	     10.15726198	     11.73491803	     38.39418983	     89.95437384	      0.00000000	      0.00000000
      0.96000000	     -3.14969549	     -2.35843468	      6.12432824	     -0.50109344	      0.88099793	      1.44878223	     24.14389057	      0.75667630	    -16.49832968	    -25.14523143	     -0.43886708	      2.14375793	     -7.71021909	      9.01006080	      1.48993317	      4.68886868	      2.58897137	    -37.93518370	     -0.66209386	      6.08065387	      9.27807427	     -3.72396442	     -0.58970658	      2.04745060	    -10.16394429	     -2.87189859	     -6.29946327	    -16.87311768	     22.40528313	     89.95437384	      0.00000000	      0.00000000	      4.66934178	     10.03604591	     12.06556961	     38.16203468	     89.95437384	      0.00000000	      0.00000000
      0.97000000	     -3.16243025	     -2.19314709	      5.90520994	     -0.49356472	      0.88180202	      1.45076794	     23.70281279	      0.87687826	    -16.25532044	    -25.32288673	     -0.44196775	      2.55158287	     -7.57574350	      8.69090751	      1.93904992	      4.68117744	      2.51306009	    -39.34115476	     -0.68663268	      4.40578439	      9.63218226	     -3.47111859	     -0.45637386	      1.85693598	     -9.92502333	     -2.89582870	     -6.30563943	    -16.67554439	     22.47589846	     89.95437384	      0.00000000	      0.00000000	      4.29742216	     10.00304334	     12.12057976	     37.85574661	     89.95437384	      0.00000000	      0.00000000
      0.98000000	     -3.09191263	     -2.20239280	      5.78996036	     -0.48582257	      0.88269897	      1.45292121	     23.11741423	      1.17648260	    -16.07465127	    -25.41588938	     -0.44359095	      3.09075342	     -7.48516480	      8.42026897	      2.43618730	      4.95248622	      2.47486501	    -40.90122434	     -0.71386103	      2.40097993	     10.21925190	     -3.15284053	     -0.36927728	      1.84946098	     -9.79248093	     -2.92308692	     -6.30911064	    -16.46783576	     22.53770898	     89.95437384	      0.00000000	      0.00000000	      3.88769217	      9.95793734	     12.22237751	     37.50870844	     89.95437384	      0.00000000	      0.00000000
      0.99000000	     -3.03650444	     -1.89574150	      5.40268291	     -0.47849697	      0.88356696	      1.45491116	     22.48764096	      1.12273277	    -16.04188295	    -25.35648921	     -0.44255422	      3.38023883	     -7.28370138	      8.18811252	      2.92011759	      4.73861272	      2.43415865	    -42.46929195	     -0.74122898	      1.03710203	     10.27799058	     -2.94675599	     -0.38048521	      1.54068132	     -9.27812483	     -2.96650701	     -6.35227007	    -16.27662929	     22.68524917	     89.95437384	      0.00000000	      0.00000000	      3.51239580	      9.86662258	     12.30150817	     37.35379395	     89.95437384	      0.00000000	      0.00000000
      1.00000000	     -3.01807269	     -1.98354671	      5.41835893	     -0.47130989	      0.88430132	      1.45686856	     21.80984618	      1.45909775	    -15.96642717	    -25.13099249	     -0.43861856	      4.06087257	     -6.95240994	      7.90957962	      3.87959990	      5.18848465	      2.59168971	    -44.41430053	     -0.77517578	     -1.78879771	     11.14666948	     -2.47559556	     -0.27462265	      1.62147141	     -9.36501176	     -2.87909098	     -6.35872568	    -15.97244460	     22.78255735	     89.95437384	      0.00000000	      0.00000000	      3.18097646	      9.85161007	     12.42340713	     36.73792811	     89.95437384	      0.00000000	      0.00000000
      1.01000000	     -2.99473332	     -1.94127167	      5.23717833	     -0.46444544	      0.88495942	      1.45886006	     21.21459128	      1.62834629	    -15.94165789	    -25.03227482	     -0.43689561	      4.36982202	     -6.55112520	      7.64946352	      4.78341026	      5.36108888	      2.61068078	    -46.31919224	     -0.80842241	     -4.04176994	     11.53464879	     -2.08825170	     -0.29205489	      1.57644027	     -9.13656666	     -2.83088039	     -6.40818942	    -15.66154380	     23.00512734	     89.95437384	      0.00000000	      0.00000000	      2.87088695	      9.79792015	     12.55188120	     36.34795641	     89.95437384	      0.00000000	      0.00000000
      1.02000000	     -3.18500556	     -2.08103260	      5.06457921	     -0.45782731	      0.88515396	      1.46080720	     20.89459396	      1.91931640	    -16.15578724	    -24.89314595	     -0.43446736	      4.68965532	     -5.85884048	      7.28419097	      6.06062168	      5.68146436	      2.49062790	    -48.36099049	     -0.84405851	     -5.83156312	     12.00507252	     -1.55616150	     -0.04607840	      1.72433258	     -8.88843387	     -2.83988871	     -6.55369164	    -15.08690796	     23.26720300	     89.95437384	      0.00000000	      0.00000000	      2.52959807	      9.61259126	     12.88289802	     36.00276252	     89.95437384	      0.00000000	      0.00000000
